# xmcd
# 
# Track frame offsets:
#     150
#     23122
#     43962
#     67227
#     88120
#     115470
# 
# Disc length: 1775
# 
# Revision: 9
# Processed by: cddbd v1.5.2PL0 Copyright (c) Steve Scherf et al.
# Submitted via: fre:ac v1.1beta1pre5
# 
DISCID=5606ed06
DTITLE=Angra - Freedom Call
DYEAR=1996
DGENRE=Heavy Metal
TTITLE0=Freedom Call
TTITLE1=Queen of the Night (Remixed Version)
TTITLE2=Reaching Horizons
TTITLE3=Stand Away (Orchestral Version)
TTITLE4=Painkiller (Remixed Version)
TTITLE5=Deep Blue (Edit Version)
EXTD=
EXTT0=
EXTT1=
EXTT2=
EXTT3=
EXTT4=
EXTT5=
PLAYORDER=
